<svg xmlns="http://www.w3.org/2000/svg" viewBox="0 0 32 32">
  <title>icon_hub</title>
  <path d="M29,5H3L1.211,8.578A2,2,0,0,0,1,9.472v.4A3.092,3.092,0,0,0,3.4,12.94,3.008,3.008,0,0,0,7,10a3,3,0,0,0,6,0,3,3,0,0,0,6,0,3,3,0,0,0,6,0,3.008,3.008,0,0,0,3.6,2.94A3.092,3.092,0,0,0,31,9.869v-.4a2,2,0,0,0-.211-.894Z"/>
  <path d="M28,15V28H4V15a2.976,2.976,0,0,1-2-.783V27.9A2.1,2.1,0,0,0,4.1,30H27.9A2.1,2.1,0,0,0,30,27.9V14.217A2.976,2.976,0,0,1,28,15Z"/>
  <path d="M4,2H28a1,1,0,0,1,1,1V4a0,0,0,0,1,0,0H3A0,0,0,0,1,3,4V3A1,1,0,0,1,4,2Z"/>
  <polygon points="16.5 21.349 16.5 26.042 20.519 23.697 20.519 19.004 16.5 21.349"/>
  <polygon points="16 20.482 20.022 18.136 16 15.789 11.978 18.136 16 20.482"/>
  <polygon points="15.5 21.349 11.481 19.004 11.481 23.697 15.5 26.042 15.5 21.349"/>
</svg>
