<?xml version="1.0" encoding="utf-8"?>
<!-- Generator: Adobe Illustrator 21.0.0, SVG Export Plug-In . SVG Version: 6.00 Build 0)  -->
<svg version="1.1" xmlns="http://www.w3.org/2000/svg" xmlns:xlink="http://www.w3.org/1999/xlink" x="0px" y="0px"
	 viewBox="0 0 320 100" style="enable-background:new 0 0 320 100;" xml:space="preserve">
<style type="text/css">
	.st0{fill:#3D444F;}
</style>
<g>
	<path class="st0" d="M95.7,67.4v-39H110c8,0,12.9,4.9,12.9,12.7v13.6c0,7.7-5,12.7-12.9,12.7H95.7z M103.1,60.7h6.9
		c3.5,0,5.4-2.3,5.4-6.7V41.8c0-4.5-1.9-6.7-5.4-6.7h-6.8L103.1,60.7z"/>
	<path class="st0" d="M157.6,49.6c0-7.3,4.6-11.7,12.1-11.7s12.1,4.5,12.1,11.7v6.6c0.1,7.3-4.6,11.7-12.1,11.7s-12.1-4.5-12.1-11.7
		V49.6z M164.7,55.6c0,4.1,1.8,6.2,5,6.2s5-2.1,5-6.2v-5.4c0-4.1-1.8-6.2-5-6.2s-5,2.1-5,6.2V55.6z"/>
	<path class="st0" d="M151.7,67.4h-6.1l-0.4-2.8c-2.2,2.2-5.1,3.4-8.2,3.3c-5.6,0-9.7-4-9.7-8.7c0-12.3,17-12.4,17-12.4
		c0-1-1.4-3.9-7.5-3.9c-1.8,0.1-3.6,0.4-5.3,1l-1.4-3.8c3-1.4,6.3-2.2,9.6-2.3c7.5,0,11.9,3.1,11.9,10.3L151.7,67.4z M138.4,62.4
		c2.4-0.1,4.6-1.3,6-3.3v-7.9c-1.2,0-9.9,0.8-9.9,7.4c-0.1,2,1.5,3.7,3.6,3.8C138.2,62.4,138.3,62.3,138.4,62.4L138.4,62.4z"/>
	<path class="st0" d="M273.5,68.6h-6.1l-0.4-2.8c-2.2,2.2-5.1,3.4-8.2,3.3c-5.6,0-9.7-4-9.7-8.7c0-12.3,17-12.4,17-12.4
		c0-1-1.4-3.9-7.5-3.9c-1.8,0.1-3.6,0.4-5.3,1l-1.4-3.8c3-1.4,6.3-2.2,9.6-2.3c7.5,0,11.9,3.1,11.9,10.3L273.5,68.6z M260.3,63.6
		c2.4-0.1,4.6-1.3,6-3.3v-7.9c-1.2,0-9.9,0.8-9.9,7.4c-0.1,2,1.5,3.7,3.6,3.8C260,63.6,260.1,63.6,260.3,63.6L260.3,63.6z"/>
	<path class="st0" d="M204.3,68.1c-7.7,0-13.4-4.9-13.4-12.5V40.7c0-7.7,5.6-12.5,13.4-12.5c4-0.1,7.9,1.2,11.1,3.7l-2.9,5.2
		c-2.8-1.5-4.6-2.4-8.2-2.4s-6,2.6-6,6.7v13.5c0,4.3,2.4,6.7,6,6.7s5.4-0.9,8.2-2.4l2.9,5.2C212.2,66.9,208.3,68.2,204.3,68.1z"/>
	<path class="st0" d="M279.2,68.2V38h7v30.2H279.2z"/>
	<path class="st0" d="M279.2,34.8v-6.4h7v6.4H279.2z"/>
	<path class="st0" d="M220.4,28.4l6.8,0.1L227,43.7h0.1c0.7-0.9,4.3-4.5,7.2-4.5c2.7-0.1,5.4,0.8,7.5,2.6c1.9,1.7,2.8,4.2,2.9,7.5
		l-0.2,19l-6.8-0.1l0.2-17c0.1-1.7-0.4-3.3-1.5-4.6c-1-1.1-2.4-1.7-3.9-1.6c-1.5-0.1-2.9,0.5-4,1.5c-1.1,1.2-1.7,2.9-1.6,4.6
		l-0.2,17l-6.8-0.1L220.4,28.4z"/>
	<path class="st0" d="M292.7,39.2l6.8,0.1l-0.2,4.4h0.1c0.7-0.9,4.3-4.5,7.2-4.5c2.7-0.1,5.4,0.8,7.5,2.6c1.9,1.7,2.8,4.2,2.9,7.5
		l-0.2,19l-6.8-0.1l0.2-17c0.1-1.7-0.4-3.3-1.5-4.6c-1-1.1-2.4-1.7-3.9-1.6c-1.5-0.1-2.9,0.5-4,1.5c-1.1,1.2-1.7,2.9-1.6,4.6
		l-0.2,17l-6.7-0.1L292.7,39.2z"/>
</g>
<polygon class="st0" points="59.3,71.7 81.2,48.2 59.4,22 43.7,39.9 48.6,45.6 59.3,33.5 71.2,47.8 59.4,60.5 24,22.2 2,48.2 
	24.1,71.7 39.7,53.9 34.7,48.3 24,60.5 12.1,47.8 24.1,33.6 "/>
</svg>
