<svg xmlns="http://www.w3.org/2000/svg" viewBox="0 0 32 32">
  <title>可信任</title>
  <g>
    <polygon points="16 3 4 6 4 21.03 16 29.951 28 21 28 6 16 3" fill="#edad31"/>
    <path d="M21.714,20.169,20.237,21.66a.45.45,0,0,1-.636,0l-3.271-3.246a.45.45,0,0,0-.636,0l-3.247,3.272a.45.45,0,0,1-.636,0L10.32,20.217a.45.45,0,0,1,0-.636l3.246-3.271a.45.45,0,0,0,0-.636l-3.272-3.247a.45.45,0,0,1,0-.636L11.763,10.3a.45.45,0,0,1,.636,0l3.271,3.246a.45.45,0,0,0,.636,0l3.247-3.272a.45.45,0,0,1,.636,0l1.491,1.477a.45.45,0,0,1,0,.636l-3.246,3.271a.45.45,0,0,0,0,.636l3.272,3.247A.45.45,0,0,1,21.714,20.169Z" fill="#fff"/>
  </g>
</svg>
